{
    "accessors" : [
        {
            "bufferView" : 0,
            "componentType" : 5123,
            "count" : 318,
            "max" : [
                179
            ],
            "min" : [
                0
            ],
            "type" : "SCALAR"
        },
        {
            "bufferView" : 1,
            "componentType" : 5126,
            "count" : 180,
            "max" : [
                9.874996185302734,
                2.8000075817108154,
                1.9749946594238281
            ],
            "min" : [
                -9.874998092651367,
                -1.5428327322006226,
                -4.550010681152344
            ],
            "type" : "VEC3"
        },
        {
            "bufferView" : 2,
            "componentType" : 5126,
            "count" : 180,
            "max" : [
                1.0,
                1.0,
                1.0
            ],
            "min" : [
                -1.0,
                -1.0,
                -1.0
            ],
            "type" : "VEC3"
        },
        {
            "bufferView" : 3,
            "componentType" : 5126,
            "count" : 180,
            "max" : [
                0.9999924898147583,
                1.0,
                0.08042728155851364,
                1.0
            ],
            "min" : [
                -0.9999925494194031,
                -1.0,
                -0.07418800890445709,
                -1.0
            ],
            "type" : "VEC4"
        },
        {
            "bufferView" : 4,
            "componentType" : 5126,
            "count" : 180,
            "max" : [
                38.877960205078125,
                22.11319923400879
            ],
            "min" : [
                -38.87794876098633,
                -21.26374053955078
            ],
            "type" : "VEC2"
        },
        {
            "bufferView" : 5,
            "componentType" : 5123,
            "count" : 144,
            "max" : [
                113
            ],
            "min" : [
                0
            ],
            "type" : "SCALAR"
        },
        {
            "bufferView" : 6,
            "componentType" : 5126,
            "count" : 114,
            "max" : [
                9.874996185302734,
                -1.1500047445297241,
                0.9875020980834961
            ],
            "min" : [
                -9.874998092651367,
                -9.299988746643066,
                -2.962510108947754
            ],
            "type" : "VEC3"
        },
        {
            "bufferView" : 7,
            "componentType" : 5126,
            "count" : 114,
            "max" : [
                1.0,
                0.999969482421875,
                1.0
            ],
            "min" : [
                -1.0,
                -1.0,
                -1.0
            ],
            "type" : "VEC3"
        },
        {
            "bufferView" : 8,
            "componentType" : 5126,
            "count" : 114,
            "max" : [
                0.9999924898147583,
                1.0,
                0.0039309351705014706,
                1.0
            ],
            "min" : [
                -0.9999924898147583,
                -1.0,
                -7.236924948195167e-10,
                -1.0
            ],
            "type" : "VEC4"
        },
        {
            "bufferView" : 9,
            "componentType" : 5126,
            "count" : 114,
            "max" : [
                38.877960205078125,
                37.61418151855469
            ],
            "min" : [
                -38.87794876098633,
                -10.663390159606934
            ],
            "type" : "VEC2"
        },
        {
            "bufferView" : 10,
            "componentType" : 5123,
            "count" : 1014,
            "max" : [
                1000
            ],
            "min" : [
                0
            ],
            "type" : "SCALAR"
        },
        {
            "bufferView" : 11,
            "componentType" : 5126,
            "count" : 1001,
            "max" : [
                9.874996185302734,
                6.749997138977051,
                1.9749946594238281
            ],
            "min" : [
                -9.874998092651367,
                -12.999998092651367,
                -3.9500017166137695
            ],
            "type" : "VEC3"
        },
        {
            "bufferView" : 12,
            "componentType" : 5126,
            "count" : 1001,
            "max" : [
                1.0,
                1.0,
                1.0
            ],
            "min" : [
                -1.0,
                -1.0,
                -1.0
            ],
            "type" : "VEC3"
        },
        {
            "bufferView" : 13,
            "componentType" : 5126,
            "count" : 1001,
            "max" : [
                1.0,
                1.0,
                0.9999990463256836,
                1.0
            ],
            "min" : [
                -0.9999924898147583,
                -1.0,
                -0.999998927116394,
                -1.0
            ],
            "type" : "VEC4"
        },
        {
            "bufferView" : 14,
            "componentType" : 5126,
            "count" : 1001,
            "max" : [
                50.56256103515625,
                47.85496139526367
            ],
            "min" : [
                -50.56256103515625,
                -16.913400650024414
            ],
            "type" : "VEC2"
        },
        {
            "bufferView" : 15,
            "componentType" : 5123,
            "count" : 48,
            "max" : [
                37
            ],
            "min" : [
                0
            ],
            "type" : "SCALAR"
        },
        {
            "bufferView" : 16,
            "componentType" : 5126,
            "count" : 38,
            "max" : [
                5.429625034332275,
                5.75000524520874,
                0.09560489654541016
            ],
            "min" : [
                -5.429625034332275,
                -12.999998092651367,
                -3.9500017166137695
            ],
            "type" : "VEC3"
        },
        {
            "bufferView" : 17,
            "componentType" : 5126,
            "count" : 38,
            "max" : [
                1.0,
                1.0,
                -0.0
            ],
            "min" : [
                -1.0,
                -1.0,
                -1.0
            ],
            "type" : "VEC3"
        },
        {
            "bufferView" : 18,
            "componentType" : 5126,
            "count" : 38,
            "max" : [
                0.999992311000824,
                1.0,
                0.003882997203618288,
                1.0
            ],
            "min" : [
                -0.9999924302101135,
                -1.0,
                -0.0038544596172869205,
                1.0
            ],
            "type" : "VEC4"
        },
        {
            "bufferView" : 19,
            "componentType" : 5126,
            "count" : 38,
            "max" : [
                50.56256103515625,
                47.85496139526367
            ],
            "min" : [
                -50.56256103515625,
                -14.551190376281738
            ],
            "type" : "VEC2"
        }
    ],
    "asset" : {
        "generator" : "Khronos Blender glTF 2.0 exporter",
        "version" : "2.0"
    },
    "bufferViews" : [
        {
            "buffer" : 0,
            "byteLength" : 636,
            "byteOffset" : 0,
            "target" : 34963
        },
        {
            "buffer" : 0,
            "byteLength" : 2160,
            "byteOffset" : 636,
            "target" : 34962
        },
        {
            "buffer" : 0,
            "byteLength" : 2160,
            "byteOffset" : 2796,
            "target" : 34962
        },
        {
            "buffer" : 0,
            "byteLength" : 2880,
            "byteOffset" : 4956,
            "target" : 34962
        },
        {
            "buffer" : 0,
            "byteLength" : 1440,
            "byteOffset" : 7836,
            "target" : 34962
        },
        {
            "buffer" : 0,
            "byteLength" : 288,
            "byteOffset" : 9276,
            "target" : 34963
        },
        {
            "buffer" : 0,
            "byteLength" : 1368,
            "byteOffset" : 9564,
            "target" : 34962
        },
        {
            "buffer" : 0,
            "byteLength" : 1368,
            "byteOffset" : 10932,
            "target" : 34962
        },
        {
            "buffer" : 0,
            "byteLength" : 1824,
            "byteOffset" : 12300,
            "target" : 34962
        },
        {
            "buffer" : 0,
            "byteLength" : 912,
            "byteOffset" : 14124,
            "target" : 34962
        },
        {
            "buffer" : 0,
            "byteLength" : 2028,
            "byteOffset" : 15036,
            "target" : 34963
        },
        {
            "buffer" : 0,
            "byteLength" : 12012,
            "byteOffset" : 17064,
            "target" : 34962
        },
        {
            "buffer" : 0,
            "byteLength" : 12012,
            "byteOffset" : 29076,
            "target" : 34962
        },
        {
            "buffer" : 0,
            "byteLength" : 16016,
            "byteOffset" : 41088,
            "target" : 34962
        },
        {
            "buffer" : 0,
            "byteLength" : 8008,
            "byteOffset" : 57104,
            "target" : 34962
        },
        {
            "buffer" : 0,
            "byteLength" : 96,
            "byteOffset" : 65112,
            "target" : 34963
        },
        {
            "buffer" : 0,
            "byteLength" : 456,
            "byteOffset" : 65208,
            "target" : 34962
        },
        {
            "buffer" : 0,
            "byteLength" : 456,
            "byteOffset" : 65664,
            "target" : 34962
        },
        {
            "buffer" : 0,
            "byteLength" : 608,
            "byteOffset" : 66120,
            "target" : 34962
        },
        {
            "buffer" : 0,
            "byteLength" : 304,
            "byteOffset" : 66728,
            "target" : 34962
        }
    ],
    "buffers" : [
        {
            "byteLength" : 67032,
            "uri" : "spaceShip.bin"
        }
    ],
    "materials" : [
        {
            "name" : "_defaultMat",
            "pbrMetallicRoughness" : {
                "metallicFactor" : 0.0
            }
        },
        {
            "name" : "glass",
            "pbrMetallicRoughness" : {
                "baseColorFactor" : [
                    0.2666667103767395,
                    0.2666667103767395,
                    0.2666667103767395,
                    1.0
                ],
                "metallicFactor" : 0.0
            }
        },
        {
            "name" : "metal",
            "pbrMetallicRoughness" : {
                "baseColorFactor" : [
                    0.886274516582489,
                    0.4000000059604645,
                    0.2705881893634796,
                    1.0
                ],
                "metallicFactor" : 0.0
            }
        },
        {
            "name" : "pipe",
            "pbrMetallicRoughness" : {
                "baseColorFactor" : [
                    0.615686297416687,
                    0.6784313917160034,
                    0.729411780834198,
                    1.0
                ],
                "metallicFactor" : 0.0
            }
        }
    ],
    "meshes" : [
        {
            "name" : "spaceCraft4_8angles",
            "primitives" : [
                {
                    "attributes" : {
                        "NORMAL" : 2,
                        "POSITION" : 1,
                        "TANGENT" : 3,
                        "TEXCOORD_0" : 4
                    },
                    "indices" : 0,
                    "material" : 2
                },
                {
                    "attributes" : {
                        "NORMAL" : 7,
                        "POSITION" : 6,
                        "TANGENT" : 8,
                        "TEXCOORD_0" : 9
                    },
                    "indices" : 5,
                    "material" : 3
                },
                {
                    "attributes" : {
                        "NORMAL" : 12,
                        "POSITION" : 11,
                        "TANGENT" : 13,
                        "TEXCOORD_0" : 14
                    },
                    "indices" : 10,
                    "material" : 0
                },
                {
                    "attributes" : {
                        "NORMAL" : 17,
                        "POSITION" : 16,
                        "TANGENT" : 18,
                        "TEXCOORD_0" : 19
                    },
                    "indices" : 15,
                    "material" : 1
                }
            ]
        }
    ],
    "nodes" : [
        {
            "name" : "Camera",
            "rotation" : [
                0.483536034822464,
                0.33687159419059753,
                -0.20870360732078552,
                0.7804827094078064
            ],
            "translation" : [
                7.481131553649902,
                5.34366512298584,
                6.5076398849487305
            ]
        },
        {
            "name" : "Lamp",
            "rotation" : [
                0.16907575726509094,
                0.7558802962303162,
                -0.27217137813568115,
                0.570947527885437
            ],
            "scale" : [
                1.0,
                1.0,
                0.9999999403953552
            ],
            "translation" : [
                4.076245307922363,
                5.903861999511719,
                -1.0054539442062378
            ]
        },
        {
            "mesh" : 0,
            "name" : "spaceCraft4_8angles",
            "rotation" : [
                0.7071068286895752,
                0.0,
                -0.0,
                0.7071067094802856
            ],
            "scale" : [
                0.02979220077395439,
                0.02979220077395439,
                0.02979220077395439
            ]
        }
    ],
    "scene" : 0,
    "scenes" : [
        {
            "name" : "Scene",
            "nodes" : [
                2,
                1,
                0
            ]
        }
    ]
}
